<?xml version="1.0" encoding="utf-8"?>
<!-- Generator: Adobe Illustrator 23.0.3, SVG Export Plug-In . SVG Version: 6.00 Build 0)  -->
<svg fill="#beebf6" version="1.1" id="Layer_1" xmlns="http://www.w3.org/2000/svg" xmlns:xlink="http://www.w3.org/1999/xlink" x="0px" y="0px"
	 viewBox="0 0 56 56" style="enable-background:new 0 0 56 56;" xml:space="preserve">
<style type="text/css">
	.st0{fill:#C4C4C4;}
	.st1{fill:#FFFFFF;stroke:#191919;stroke-width:2;stroke-linecap:round;stroke-linejoin:round;}
	.st2{fill:#FFFFFF;}
	.st3{fill:#191919;}
	.st4{fill:none;stroke:#191919;stroke-width:2;stroke-linecap:round;stroke-linejoin:round;}
</style>
<path d="M28,0L28,0c15.5,0,28,12.5,28,28l0,0c0,15.5-12.5,28-28,28l0,0C12.5,56,0,43.5,0,28l0,0C0,12.5,12.5,0,28,0z"/>
<rect x="18" y="12" class="st0" width="7" height="7"/>
<path class="st1" d="M45.1,14.4c0-1.3-1.1-2.4-2.4-2.4H13.4c-1.3,0-2.4,1.1-2.4,2.4v26.8c0,1.3,1.1,2.4,2.4,2.4h29.2
	c1.3,0,2.4-1.1,2.4-2.4V14.4L45.1,14.4z"/>
<path class="st2" d="M45.1,19.3H11H45.1z"/>
<path class="st3" d="M45.1,19.3H11H45.1z"/>
<path class="st4" d="M45.1,19.3H11"/>
<path class="st4" d="M18,13v6"/>
<path class="st4" d="M25,12.8v6"/>
<path class="st4" d="M32,12.8v6"/>
<path class="st4" d="M39,12.8v6"/>
<path class="st2" d="M11,37h34.1H11z"/>
<path class="st4" d="M11,37h34.1"/>
<path class="st4" d="M38.1,43.3v-6"/>
<path class="st4" d="M31.1,43.5v-6"/>
<path class="st4" d="M24.1,43.5v-6"/>
<path class="st4" d="M17.1,43.5v-6"/>
<path class="st1" d="M25.4,32.9c-0.4,0.1-0.7,0.1-1,0c-0.4-0.2-0.5-0.5-0.5-0.8v-7c0-0.4,0.2-0.7,0.5-0.8c0.2-0.2,0.6-0.2,1-0.1
	l7,3.5c0.4,0.1,0.6,0.5,0.6,1c0,0.4-0.2,0.7-0.6,1L25.4,32.9z"/>
</svg>
