<?xml version="1.0" encoding="utf-8"?>
<!-- Generator: Adobe Illustrator 23.0.3, SVG Export Plug-In . SVG Version: 6.00 Build 0)  -->
<svg fill="#fff48a" version="1.1" id="Layer_1" xmlns="http://www.w3.org/2000/svg" xmlns:xlink="http://www.w3.org/1999/xlink" x="0px" y="0px"
	 viewBox="0 0 56 56" style="enable-background:new 0 0 56 56;" xml:space="preserve">
<style type="text/css">
	.st0{fill:#FFFFFF;stroke:#191919;stroke-width:2;stroke-linecap:round;stroke-linejoin:round;}
	.st1{fill:none;stroke:#191919;stroke-width:2;stroke-linecap:round;stroke-linejoin:round;}
</style>
<path d="M28,0L28,0c15.5,0,28,12.5,28,28l0,0c0,15.5-12.5,28-28,28l0,0C12.5,56,0,43.5,0,28l0,0C0,12.5,12.5,0,28,0z"/>
<path class="st0" d="M44.7,33.7v9c0,1.2-1.1,2.3-2.3,2.3H22.1c-1.2,0-2.3-1.1-2.3-2.3v-9H44.7z"/>
<path class="st1" d="M38.1,33.7V45"/>
<path class="st1" d="M44.7,39.3h-6.8"/>
<path class="st1" d="M26.6,33.7V45"/>
<path class="st1" d="M20,39.3h6.8"/>
<path class="st1" d="M20,38.2h-1.2c-2.6,0-4.5-2-4.5-4.5v-6.8"/>
<path class="st1" d="M11,30.3l3.3-3.5l3.3,3.3"/>
<path class="st0" d="M11,22.3v-9c0-1.2,1.1-2.3,2.3-2.3h20.3c1.2,0,2.3,1.1,2.3,2.3v9H11z"/>
<path class="st1" d="M17.6,22.3V11.2"/>
<path class="st1" d="M11,16.7h6.8"/>
<path class="st1" d="M29.1,22.3V11.2"/>
<path class="st1" d="M35.7,16.7h-6.8"/>
<path class="st1" d="M35.7,17.8h1.2c2.6,0,4.5,2,4.5,4.5v6.8"/>
<path class="st1" d="M44.7,25.7l-3.3,3.5l-3.3-3.3"/>
</svg>
