<?xml version="1.0" encoding="utf-8"?>
<!-- Generator: Adobe Illustrator 23.0.3, SVG Export Plug-In . SVG Version: 6.00 Build 0)  -->
<svg fill="#ffd6b0" version="1.1" id="Layer_1" xmlns="http://www.w3.org/2000/svg" xmlns:xlink="http://www.w3.org/1999/xlink" x="0px" y="0px"
	 viewBox="0 0 56 56" style="enable-background:new 0 0 56 56;" xml:space="preserve">
<style type="text/css">
	.st0{fill:#FFFFFF;stroke:#191919;stroke-width:2;stroke-linecap:round;stroke-linejoin:round;}
	.st1{fill:#FFFFFF;}
	.st2{fill:none;stroke:#191919;stroke-width:2;stroke-linecap:round;stroke-linejoin:round;}
	.st3{stroke:#191919;stroke-width:2;stroke-linecap:round;stroke-linejoin:round;}
</style>
<path d="M28,0L28,0c15.5,0,28,12.5,28,28l0,0c0,15.5-12.5,28-28,28l0,0C12.5,56,0,43.5,0,28l0,0C0,12.5,12.5,0,28,0z"/>
<path class="st0" d="M12.1,14.1c0-1.1,1-2.1,2.1-2.1h27.3c1.1,0,2.1,1,2.1,2.1v27.4c0,1.1-1,2.1-2.1,2.1H14.1c-1.1,0-2.1-1-2.1-2.1
	V14.1H12.1z"/>
<path class="st1" d="M19,19h1.8c2.8,0,5.1,2.3,5.1,5.2s-2.3,5.2-5.1,5.2H19"/>
<path class="st2" d="M19,19h1.8c2.8,0,5.1,2.3,5.1,5.2s-2.3,5.2-5.1,5.2H19"/>
<path class="st1" d="M19,36.3v-17V36.3z"/>
<path class="st3" d="M19,36.3v-17"/>
<path class="st1" d="M31,19h1.8c2.8,0,5.1,2.3,5.1,5.2s-2.3,5.2-5.1,5.2H31"/>
<path class="st2" d="M31,19h1.8c2.8,0,5.1,2.3,5.1,5.2s-2.3,5.2-5.1,5.2H31"/>
<path class="st1" d="M31,36.3v-17V36.3z"/>
<path class="st3" d="M31,36.3v-17"/>
</svg>
