<?xml version="1.0" encoding="utf-8"?>
<!-- Generator: Adobe Illustrator 23.0.3, SVG Export Plug-In . SVG Version: 6.00 Build 0)  -->
<svg fill="#d5d5ff" version="1.1" id="Layer_1" xmlns="http://www.w3.org/2000/svg" xmlns:xlink="http://www.w3.org/1999/xlink" x="0px" y="0px"
	 viewBox="0 0 56 56" style="enable-background:new 0 0 56 56;" xml:space="preserve">
<style type="text/css">
	.st0{fill:#FFFFFF;stroke:#191919;stroke-width:2;stroke-linecap:round;stroke-linejoin:round;}
	.st1{fill:none;stroke:#191919;stroke-width:2;stroke-linecap:round;stroke-linejoin:round;}
	.st2{stroke:#191919;stroke-width:2;stroke-linecap:round;stroke-linejoin:round;}
</style>
<path d="M28,0L28,0c15.5,0,28,12.5,28,28l0,0c0,15.5-12.5,28-28,28l0,0C12.5,56,0,43.5,0,28l0,0C0,12.5,12.5,0,28,0z"/>
<path class="st0" d="M12.1,14.1c0-1.1,1-2.1,2.1-2.1h27.3c1.1,0,2.1,1,2.1,2.1v27.4c0,1.1-1,2.1-2.1,2.1H14.1c-1.1,0-2.1-1-2.1-2.1
	V14.1H12.1z"/>
<path class="st1" d="M18,36V23.2c0-1.7,1.5-3.2,3.2-3.2c1.7,0,3.2,1.5,3.2,3.2V36"/>
<path class="st2" d="M18,29.6h6.4"/>
<path class="st1" d="M37.1,36h-3.2c-1.7,0-3.2-1.5-3.2-3.2v-9.6c0-1.7,1.5-3.2,3.2-3.2h3.2"/>
<path class="st2" d="M30.7,29.6h6.4"/>
</svg>
