<?xml version="1.0" encoding="utf-8"?>
<!-- Generator: Adobe Illustrator 23.0.3, SVG Export Plug-In . SVG Version: 6.00 Build 0)  -->
<svg fill="#d5d5ff" version="1.1" id="Layer_1" xmlns="http://www.w3.org/2000/svg" xmlns:xlink="http://www.w3.org/1999/xlink" x="0px" y="0px"
	 viewBox="0 0 56 56" style="enable-background:new 0 0 56 56;" xml:space="preserve">
<style type="text/css">
	.st0{fill:none;stroke:#191919;stroke-width:2;stroke-linecap:round;stroke-linejoin:round;}
	.st1{fill:#FFFFFF;stroke:#191919;stroke-width:2;stroke-linecap:round;stroke-linejoin:round;}
</style>
<path d="M28,0L28,0c15.5,0,28,12.5,28,28l0,0c0,15.5-12.5,28-28,28l0,0C12.5,56,0,43.5,0,28l0,0C0,12.5,12.5,0,28,0z"/>
<path class="st0" d="M13,17.8h6.8"/>
<path class="st0" d="M40.2,17.8h-6.8"/>
<path class="st0" d="M19.6,45V31.4"/>
<path class="st0" d="M33.2,22.3V11.2"/>
<path class="st0" d="M19.6,24.8V11.2"/>
<path class="st0" d="M13,38.4h6.8"/>
<path class="st0" d="M13,31.4h12.4"/>
<path class="st0" d="M40.2,22.3v-9.1c0-1.2-1.1-2.3-2.3-2.3H15.3c-1.2,0-2.3,1.1-2.3,2.3v29.5c0,1.2,1.1,2.3,2.3,2.3h11.3"/>
<path class="st0" d="M13,24.8h15.9"/>
<path class="st1" d="M37.8,45c5,0,9.1-4.1,9.1-9.1c0-5-4.1-9.1-9.1-9.1c-5,0-9.1,4.1-9.1,9.1C28.7,41.1,32.8,45,37.8,45z"/>
<path class="st0" d="M37.8,31.4v9.1"/>
<path class="st0" d="M33.2,35.9h9.1"/>
</svg>
