<svg aria-label="Placeit by Envato" height="16" viewBox="0 0 687 83" xmlns="http://www.w3.org/2000/svg"><path d="M284.687 20.101H297l-.949 4.343h-12.31l-6.84 31.01c-.317 1.515-.526 3.131-.526 4.244 0 3.937 2.525 5.856 6.523 5.856 2.842 0 6.63-1.11 8.84-2.523l-.947 4.543C288.475 68.99 284.58 70 281.319 70c-6.524 0-11.048-3.333-11.048-9.292 0-1.618.315-3.436.63-4.951l6.946-31.313h-7.367l.947-4.343h7.367l2.947-13.03 6.418-2.425-3.472 15.455zm-33.251 0h12.523l-8.839 40.201c-.316 1.414-.527 2.626-.527 3.234 0 1.313.843 2.12 2.526 2.12 1.37 0 3.052-.504 4.42-1.312l-.946 4.14c-1.265.908-3.79 1.516-5.684 1.516-4.104 0-6.313-2.222-6.313-5.656 0-.709.21-2.426.526-3.739l7.997-36.16h-6.63l.947-4.344zm16.417-14.544c0 2.523-2.736 4.846-5.262 4.846-1.894 0-3.263-1.412-3.263-3.23 0-2.527 2.527-4.749 5.053-4.749 1.894 0 3.472 1.315 3.472 3.133zm-39.526 27.17c0-2.727-1.789-4.746-5.262-4.746-7.05 0-12.943 6.97-15.26 14.444 1.369.303 3.895.606 5.684.606 9.681 0 14.838-4.445 14.838-10.304zm12.838 0c0 10.203-10.417 18.283-25.677 18.283-2.84 0-6.63-.303-9.26-.91 0 .405-.106.809-.106 1.112 0 6.262 4.315 9.799 10.63 9.799 5.682 0 12.838-2.426 17.573-5.153l-2 9.393C227.38 68.08 219.908 70 213.279 70c-12.102 0-21.152-5.96-21.152-18.182 0-16.667 13.787-32.627 32.202-32.627 9.68 0 16.837 4.546 16.837 13.536zm-49.584.606c0 .808-.21 2.222-.315 2.728l-13.47.302c.105-.505.21-1.413.21-2.12 0-3.334-1.262-6.262-5.262-6.262-4.314 0-7.996 3.131-10.523 7.069-3.052 4.747-4.946 11.314-4.946 16.566 0 6.264 3.683 9.395 10.42 9.395 5.365 0 12.205-2.224 17.362-5.254l-2.105 9.395c-4.42 2.725-11.47 4.848-17.995 4.848-12.311 0-21.783-5.557-21.783-18.283 0-16.87 12.629-32.526 30.728-32.526 10.63 0 17.679 5.455 17.679 14.142zm-71.472 15.455l4.524-20.302c-.841-.505-2-.81-3.26-.81-12.208 0-19.995 14.141-19.995 24.445 0 5.759 2.42 8.787 7.154 8.787 3.368 0 5.79-1.21 7.684-3.232 1.894-2.12 3.051-5.252 3.893-8.888zm12.838-26.768l7.577-1.919-7.998 35.858c-.21 1.01-.42 2.121-.42 2.729 0 1.311.736 2.02 2.315 2.02 1.367 0 3.367-.709 4.736-1.416l-1.684 7.678c-2.737 1.614-6.209 2.626-9.892 2.626-4.21 0-7.788-1.818-8.735-5.355-2.947 3.333-8.314 5.759-14.627 5.759-10.524 0-16.943-6.666-16.943-17.475 0-18.485 15.26-33.334 34.41-33.334 4.105 0 8.42 1.112 11.261 2.83zM67.473 0h20.732L75.787 56.363c-.211 1.012-.422 2.121-.422 2.727 0 1.313.843 2.02 2.421 2.02 1.367 0 3.263-.707 4.63-1.412l-1.683 7.674C77.997 68.99 74.523 70 70.84 70c-5.577 0-9.681-2.426-9.681-8.284 0-1.414.209-3.232.736-5.454L72.209 9.496h-6.84L67.473 0zM46.407 22.93c0-2.627-.736-4.547-2.104-5.758-1.895-1.617-4.946-2.222-9.576-2.222h-8.209l-5.367 24.141h6c6.734 0 11.048-1.415 13.994-3.94 3.58-2.93 5.262-7.98 5.262-12.222zm15.049-.809c0 7.778-3.368 14.647-9.156 19.293-5.578 4.445-13.26 6.566-23.046 6.566h-9.996l-4.631 21.11H0l11.891-54.14H4.524L6.63 5.151H36.2c9.261 0 15.576 1.313 19.89 4.648 3.578 2.727 5.367 6.666 5.367 12.322z"/><path d="M425.85 19.966c-1.508-.821-5.829-.312-11.017 1.262-9.08 6.088-16.743 15.055-17.28 29.459-.096.344-.991-.049-1.169-.156-2.452-4.608-3.423-9.461-1.376-16.463.382-.624-.865-1.393-1.089-1.171-.45.441-2.324 2.398-3.57 4.515-6.167 10.493-2.133 23.939 8.66 29.824 10.788 5.893 24.41 2.091 30.418-8.494 6.949-12.216.496-36.543-3.578-38.776" fill="#80B341"/><path d="M464.467 32.71c6.936 0 11.387 4.335 11.662 11.332h-24.741c.648-6.476 6.231-11.333 13.079-11.333m0-6.881c-12.792 0-22.077 9.328-22.077 22.178 0 12.957 9.26 22.003 22.522 22.003 6.7 0 12.002-2.053 16.222-6.283 1.258-1.332 1.393-2.618 1.393-3.11 0-2.094-1.588-3.615-3.776-3.615-1.104 0-2.027.407-3.084 1.365-2.39 2.183-5.533 4.414-10.755 4.414-7.26 0-13.163-5.345-13.535-12.209h28.891c3.143 0 4.67-1.442 4.67-4.403 0-.872 0-1.501-.18-2.744-1.558-11.019-9.142-17.596-20.291-17.596M512.526 25.829c-5.811 0-11.565 3.278-13.811 7.829v-2.812c0-4.359-3.445-4.578-4.133-4.578-2.041 0-4.222 1.2-4.222 4.578V64.82c0 4.523 3.665 4.753 4.4 4.753.734 0 4.4-.23 4.4-4.753V46.607c0-7.924 4.579-13.458 11.135-13.458 6.35 0 9.437 4.084 9.437 12.494V64.82c0 4.523 3.667 4.753 4.401 4.753.735 0 4.4-.23 4.4-4.753V42.928c0-8.266-4.206-17.1-16.007-17.1M568.353 26.268c-2.034 0-3.51 1.163-4.388 3.453l-12.04 29.695-11.95-29.695c-.934-2.324-2.4-3.453-4.476-3.453-2.426 0-4.401 1.857-4.401 4.139 0 .566.065 1.298.553 2.442l13.836 32.047c1.65 3.865 4.363 4.677 6.35 4.677 1.983 0 4.696-.812 6.349-4.675l13.929-32.226c.475-1.13.549-1.961.549-2.352 0-2.31-1.856-4.052-4.31-4.052M601.53 49.083h1.852v1.988c0 7.274-4.722 11.97-12.028 11.97-1.982 0-8.453-.451-8.453-6.28 0-6.883 10.63-7.678 18.63-7.678m-7.587-23.255c-5.63 0-10.872 1.539-14.76 4.327-1.32.893-1.962 2.005-1.962 3.405 0 1.929 1.501 3.438 3.42 3.438.832 0 1.758-.323 2.611-.907 3.344-2.187 6.487-3.207 9.885-3.207 6.508 0 10.244 3.245 10.244 8.906v.937c-14.607.017-29.465 1.746-29.465 14.21 0 8.971 7.818 12.986 15.563 12.986 6.168 0 11.094-2.398 14.256-6.936v2.182c0 3.25 2.225 4.403 4.136 4.403.4 0 3.951-.124 3.951-4.403V42.315c0-10.324-6.685-16.487-17.879-16.487M634.743 34.111c3.85 0 4.047-2.94 4.047-3.53 0-1.745-1.064-3.613-4.047-3.613h-7.918v-7.854c0-3.51-2.321-4.754-4.31-4.754-.737 0-4.4.228-4.4 4.754v37.298c0 8.61 4.328 13.16 12.523 13.16 2.119 0 4.185-.369 5.534-.985 1.55-.758 2.438-2.003 2.438-3.417 0-1.995-1.475-3.443-3.51-3.443-.393 0-.952.097-1.566.27-.756.186-1.265.258-1.824.258-3.335 0-4.885-2.137-4.885-6.72V34.112h7.918zM663.846 62.692c-9.13 0-13.902-7.477-13.902-14.86 0-10.152 7.207-14.772 13.902-14.772 6.696 0 13.902 4.62 13.902 14.771 0 10.21-7.206 14.86-13.902 14.86m0-36.863c-13.31 0-22.97 9.254-22.97 22.003 0 6.206 2.341 11.863 6.588 15.926 4.213 4.032 10.03 6.253 16.382 6.253 13.146 0 23.059-9.535 23.059-22.179 0-12.749-9.7-22.003-23.059-22.003M323.154 65.602c-2.286 0-4.2-.568-5.686-1.686-1.423-1.069-2.301-2.565-2.675-4.566l3.373-14.888c.851-2.127 2.428-3.953 4.693-5.42 2.313-1.501 4.77-2.263 7.301-2.263 1.663 0 2.997.399 4.076 1.22 1.072.819 1.796 2.028 2.208 3.7.435 1.763.53 3.713.29 5.748l-.512 3.236-.141.601c-1.074 4.522-2.786 8.106-5.087 10.65-2.238 2.467-4.802 3.668-7.84 3.668zm17.018-14.575c.249-1.243.435-2.552.56-3.905.2-2.62-.035-5.05-.702-7.225-.696-2.272-1.902-4.028-3.582-5.22-1.674-1.191-3.742-1.793-6.149-1.793-2.594 0-5.078.623-7.381 1.852a17.639 17.639 0 0 0-3.234 2.23l3.618-16.058a1.067 1.067 0 0 0-1.045-1.32h-1.686c-.543 0-1.026.39-1.144.927l-10.333 47.057a1.067 1.067 0 0 0 1.047 1.313h1.687c.54 0 1.021-.387 1.142-.917l.559-2.455a9.813 9.813 0 0 0 2.782 2.341c1.915 1.09 4.16 1.643 6.672 1.643 3.886 0 7.359-1.514 10.318-4.5 2.88-2.901 5.02-6.899 6.366-11.901l.505-2.07zM374.025 34.078a1.067 1.067 0 0 0-.941-.55h-1.906c-.406 0-.792.219-1.003.573l-16.753 27.903-4.862-27.658c-.09-.513-.53-.88-1.055-.88h-1.782c-.34 0-.669.154-.892.42-.224.264-.321.612-.262.944l5.802 32.407-3.02 5.12-1.313 1.985c-1.936 2.714-4.038 4.034-6.43 4.034-.162 0-.629-.032-1.923-.26a1.149 1.149 0 0 0-.87.21c-.255.183-.426.46-.476.763l-.256 1.588a1.067 1.067 0 0 0 .777 1.215c.948.252 1.879.38 2.786.38h.002c2.164-.044 4.182-.722 6.004-2.01 1.792-1.264 3.52-3.353 5.285-6.382l23.054-38.692c.21-.348.22-.768.034-1.11" fill="#121212"/></svg>