<svg aria-label="Envato Studio" height="16" viewBox="0 0 98.462 16" width="99" xmlns="http://www.w3.org/2000/svg"><path d="M7.628 2.519c-.295-.149-1.142-.075-2.174.261-1.769 1.231-3.28 3.058-3.39 5.966-.037.075-.184 0-.221-.037-.479-.932-.663-1.902-.258-3.319.074-.112-.184-.298-.221-.224a5.544 5.544 0 0 0-.7.932c-1.216 2.125-.405 4.848 1.695 6.041a4.371 4.371 0 0 0 5.97-1.715c1.363-2.536.111-7.458-.7-7.905z" fill="#81B441"/><path d="M15.117 3.673c-2.476 0-4.273 1.863-4.273 4.43 0 2.588 1.792 4.395 4.359 4.395 1.296 0 2.323-.41 3.139-1.255.244-.266.27-.523.27-.621 0-.419-.307-.722-.731-.722-.213 0-.392.082-.597.273-.462.436-1.071.882-2.081.882-1.405 0-2.547-1.068-2.619-2.439h5.591c.608 0 .903-.288.903-.879 0-.174 0-.3-.034-.548-.301-2.201-1.769-3.515-3.927-3.515zm0 1.374c1.342 0 2.204.866 2.257 2.264h-4.788c.126-1.294 1.206-2.264 2.531-2.264zM24.418 3.673c-1.125 0-2.238.654-2.673 1.564v-.562c0-.871-.667-.915-.8-.915-.395 0-.817.24-.817.915v6.786c0 .904.709.949.852.949.142 0 .852-.046.852-.949V7.823c0-1.583.886-2.688 2.155-2.688 1.228 0 1.826.816 1.826 2.496v3.831c0 .904.71.949.852.949.142 0 .851-.046.851-.949V7.089c0-1.651-.814-3.416-3.097-3.416M35.222 3.76c-.394 0-.679.233-.849.69l-2.33 5.932-2.312-5.932c-.181-.464-.464-.69-.867-.69a.841.841 0 0 0-.852.827c0 .113.013.259.107.488l2.678 6.401c.319.772.844.934 1.228.934s.909-.162 1.229-.934l2.695-6.437c.092-.226.106-.391.106-.47 0-.461-.359-.81-.834-.81M40.175 3.673c-1.089 0-2.104.307-2.857.864-.255.178-.379.401-.379.68 0 .385.29.687.662.687a.9.9 0 0 0 .505-.182c.647-.437 1.255-.64 1.913-.64 1.259 0 1.982.648 1.982 1.779v.187c-2.827.003-5.702.349-5.702 2.838 0 1.792 1.513 2.594 3.012 2.594 1.194 0 2.147-.479 2.759-1.385v.436c0 .649.431.879.8.879.078 0 .765-.025.765-.879V6.966c0-2.062-1.294-3.293-3.46-3.293zm1.468 4.645h.358v.397c0 1.453-.914 2.391-2.328 2.391-.384 0-1.636-.09-1.636-1.255 0-1.375 2.058-1.534 3.606-1.534zM48.07 5.327c.745 0 .783-.587.783-.704 0-.349-.206-.722-.783-.722h-1.532V2.332c0-.701-.449-.95-.834-.95-.142 0-.852.046-.852.95v7.451c0 1.719.838 2.628 2.424 2.628.41 0 .81-.073 1.071-.197.3-.151.472-.4.472-.683 0-.398-.285-.687-.679-.687-.076 0-.184.019-.303.054a1.355 1.355 0 0 1-.353.051c-.645 0-.945-.426-.945-1.342v-4.28h1.532M53.703 3.673c-2.576 0-4.445 1.848-4.445 4.395 0 1.24.453 2.37 1.275 3.182.816.806 1.941 1.249 3.171 1.249 2.544 0 4.463-1.905 4.463-4.431 0-2.546-1.877-4.395-4.463-4.395zm0 7.364c-1.767 0-2.69-1.493-2.69-2.969 0-2.027 1.394-2.95 2.69-2.95s2.69.923 2.69 2.95c0 2.04-1.395 2.969-2.69 2.969z" fill="#131412"/><path d="M66.682 8.519a3.487 3.487 0 0 0-.934-.543 8.626 8.626 0 0 0-1.297-.395 7.779 7.779 0 0 1-1.239-.376c-.298-.127-.53-.26-.687-.397a.889.889 0 0 1-.278-.387 1.693 1.693 0 0 1-.074-.512c0-.155.036-.316.109-.477.072-.16.188-.31.344-.444a1.89 1.89 0 0 1 .636-.341c.267-.09.597-.136.98-.136.373 0 .706.049.99.147.28.096.517.225.702.384.182.156.323.337.418.537.094.198.141.407.141.621 0 .069.027.136.076.185a.257.257 0 0 0 .182.076h.416a.26.26 0 0 0 .258-.261c0-.388-.076-.75-.224-1.074a2.329 2.329 0 0 0-.65-.838 3.02 3.02 0 0 0-1.003-.528 4.321 4.321 0 0 0-1.305-.184c-.453 0-.866.06-1.227.177a2.948 2.948 0 0 0-.94.491 2.248 2.248 0 0 0-.61.748 2.066 2.066 0 0 0-.217.932c0 .375.067.705.2.982.133.279.335.522.599.722.252.191.566.355.935.485.354.125.771.239 1.236.337.482.107.88.236 1.184.382.296.143.53.297.696.458.157.153.265.309.322.464.059.163.09.326.09.483 0 .175-.043.345-.131.521-.088.177-.223.34-.4.484a2.163 2.163 0 0 1-.689.361c-.489.162-1.169.185-1.84.056a2.494 2.494 0 0 1-.754-.27 1.662 1.662 0 0 1-.543-.49c-.14-.196-.221-.451-.243-.757a.26.26 0 0 0-.257-.243h-.408a.26.26 0 0 0-.258.261c0 .345.077.676.227.984.15.307.373.578.661.808.283.225.633.405 1.043.534.404.127.87.191 1.388.191.461 0 .887-.057 1.264-.172.383-.116.716-.28.989-.489.279-.214.497-.475.648-.774.152-.301.228-.637.228-.998 0-.36-.06-.686-.179-.967a2.033 2.033 0 0 0-.571-.759M71.856 11.677l-.383.048c-.223.023-.536.037-.79-.037a.59.59 0 0 1-.275-.178 1.074 1.074 0 0 1-.211-.421 2.989 2.989 0 0 1-.088-.805V4.672h1.601a.26.26 0 0 0 .258-.261V3.99a.26.26 0 0 0-.258-.261h-1.601V1.757a.26.26 0 0 0-.258-.261h-.416a.26.26 0 0 0-.258.261v1.972h-1.253a.26.26 0 0 0-.258.261v.421a.26.26 0 0 0 .258.261h1.253v5.612c0 .435.041.805.123 1.102.086.313.215.569.385.761.174.198.39.339.64.42.231.074.493.111.78.111l.198-.004.25-.016.244-.028.251-.06a.26.26 0 0 0 .166-.29l-.068-.39a.259.259 0 0 0-.291-.213M79.111 3.729h-.416a.26.26 0 0 0-.258.261v5.795a2.982 2.982 0 0 1-.252.757c-.115.233-.275.44-.475.615a2.3 2.3 0 0 1-.755.425c-.303.107-.671.161-1.094.161-.297 0-.574-.044-.823-.131a1.497 1.497 0 0 1-.614-.402 2.004 2.004 0 0 1-.415-.751c-.104-.321-.157-.725-.157-1.2V3.99a.26.26 0 0 0-.258-.261h-.408a.26.26 0 0 0-.258.261v5.254c0 .601.07 1.123.209 1.55.142.437.346.801.605 1.08.262.283.582.491.95.619.356.124.754.186 1.184.186.752 0 1.388-.147 1.889-.436.254-.147.478-.321.672-.521v.543a.26.26 0 0 0 .258.261h.416a.26.26 0 0 0 .258-.261V3.991a.26.26 0 0 0-.258-.261M83.767 4.511c.398 0 .744.058 1.027.172.284.115.528.265.723.444.197.182.359.386.481.607.121.219.219.436.293.648v3.781c-.09.216-.205.42-.342.607a2.21 2.21 0 0 1-.528.51 2.539 2.539 0 0 1-.727.34 3.33 3.33 0 0 1-.94.123c-.401 0-.751-.084-1.041-.249a2.104 2.104 0 0 1-.73-.706 3.608 3.608 0 0 1-.453-1.123 6.472 6.472 0 0 1-.156-1.462v-.16c0-.528.052-1.02.156-1.462.101-.432.254-.808.455-1.117.195-.3.444-.536.738-.704.292-.166.643-.249 1.045-.249M86.957.257h-.408a.26.26 0 0 0-.258.261V4.67l-.013-.015a3.041 3.041 0 0 0-1.502-.947 3.6 3.6 0 0 0-1-.133c-.522 0-.998.107-1.415.318a2.967 2.967 0 0 0-1.063.912c-.283.387-.5.861-.646 1.41a7.125 7.125 0 0 0-.217 1.827v.16c0 .652.073 1.256.217 1.793.146.545.361 1.021.64 1.414a3.01 3.01 0 0 0 1.054.936c.416.22.892.332 1.415.332.358 0 .693-.04.998-.119a3.46 3.46 0 0 0 .84-.335 3.11 3.11 0 0 0 .675-.508l.018-.018v.566a.26.26 0 0 0 .258.261h.408a.26.26 0 0 0 .258-.261V.517a.26.26 0 0 0-.258-.261M88.629.921a.684.684 0 0 0-.194.484.675.675 0 0 0 1.151.486.666.666 0 0 0 .203-.486.68.68 0 0 0-1.161-.484M89.313 3.729h-.408a.26.26 0 0 0-.258.261v8.274a.26.26 0 0 0 .258.261h.408a.26.26 0 0 0 .258-.261V3.99a.26.26 0 0 0-.258-.261M94.461 11.743c-.461 0-.874-.092-1.229-.274a2.767 2.767 0 0 1-.913-.745 3.438 3.438 0 0 1-.579-1.102 4.365 4.365 0 0 1-.203-1.335v-.321c0-.455.068-.897.203-1.315.133-.414.328-.786.577-1.104.245-.313.552-.568.911-.756.354-.186.764-.28 1.219-.28.455 0 .865.094 1.219.28.359.189.667.443.915.757.251.318.446.689.579 1.103.135.418.203.86.203 1.315v.321c0 .465-.068.914-.203 1.335a3.466 3.466 0 0 1-.576 1.103c-.245.311-.55.561-.905.745a2.635 2.635 0 0 1-1.217.273m3.55-5.53a4.25 4.25 0 0 0-.778-1.389 3.562 3.562 0 0 0-1.218-.919 3.702 3.702 0 0 0-1.569-.329c-.564 0-1.089.111-1.559.33a3.61 3.61 0 0 0-1.216.918 4.21 4.21 0 0 0-.783 1.39 5.393 5.393 0 0 0-.275 1.753v.321c0 .633.092 1.223.275 1.753.184.534.447 1.002.783 1.389a3.592 3.592 0 0 0 2.789 1.248c.564 0 1.089-.111 1.559-.33a3.623 3.623 0 0 0 1.216-.918c.336-.388.598-.856.779-1.391a5.47 5.47 0 0 0 .271-1.752v-.321c0-.633-.093-1.223-.275-1.753" fill="#81B441"/></svg>