<svg xmlns="http://www.w3.org/2000/svg" aria-label="Envato Tuts+" height="16" width="92"><path d="M7.745 1.65c-.295-.149-1.142-.075-2.174.261-1.769 1.231-3.28 3.058-3.39 5.966-.037.075-.184 0-.221-.037-.479-.932-.663-1.902-.258-3.319.074-.112-.184-.298-.221-.224a5.544 5.544 0 0 0-.7.932C-.435 7.354.376 10.077 2.476 11.27a4.371 4.371 0 0 0 5.97-1.715c1.363-2.536.111-7.458-.7-7.905z" fill="#81B441"/><path d="M15.13 3.999c1.363 0 2.237.879 2.291 2.297H12.56c.128-1.313 1.225-2.297 2.57-2.297m0-1.395c-2.513 0-4.337 1.891-4.337 4.495 0 2.626 1.819 4.46 4.424 4.46 1.316 0 2.358-.417 3.186-1.273.248-.27.274-.531.274-.631 0-.425-.312-.733-.742-.733-.217 0-.398.083-.606.277-.469.443-1.087.895-2.113.895-1.426 0-2.586-1.084-2.659-2.475h5.676c.617 0 .917-.292.917-.892 0-.177 0-.304-.035-.556-.306-2.233-1.796-3.567-3.986-3.567M24.571 2.604c-1.142 0-2.272.664-2.713 1.587v-.57c0-.883-.677-.928-.812-.928-.401 0-.829.244-.829.928v6.886c0 .917.72.964.864.964.144 0 .865-.046.865-.964V6.816c0-1.606.9-2.728 2.187-2.728 1.247 0 1.854.828 1.854 2.532v3.887c0 .917.72.964.865.964.144 0 .865-.046.865-.964V6.07c0-1.676-.826-3.466-3.144-3.466M35.539 2.693c-.399 0-.689.236-.862.7l-2.365 6.019-2.347-6.019c-.184-.471-.471-.7-.88-.7a.854.854 0 0 0-.865.839c0 .114.013.263.108.495l2.719 6.495c.324.783.857.948 1.247.948.39 0 .923-.164 1.248-.948l2.736-6.532c.094-.229.108-.398.108-.477 0-.468-.364-.821-.847-.821M42.056 7.318h.364v.403c0 1.474-.928 2.426-2.363 2.426-.39 0-1.661-.092-1.661-1.273 0-1.395 2.089-1.556 3.66-1.556m-1.49-4.713c-1.106 0-2.136.312-2.9.877-.259.181-.385.407-.385.69 0 .391.295.697.672.697a.922.922 0 0 0 .513-.184c.657-.443 1.274-.65 1.942-.65 1.278 0 2.012.658 2.012 1.805v.19c-2.87.003-5.788.354-5.788 2.88 0 1.818 1.536 2.632 3.057 2.632 1.212 0 2.18-.486 2.801-1.406v.442c0 .659.437.892.812.892.079 0 .777-.025.777-.892V5.946c0-2.093-1.314-3.342-3.513-3.342M48.581 4.283c.757 0 .795-.596.795-.715 0-.354-.209-.733-.795-.733h-1.555V1.243c0-.711-.456-.964-.847-.964-.144 0-.865.046-.865.964v7.561c0 1.745.851 2.667 2.46 2.667.416 0 .823-.075 1.088-.199.304-.154.478-.406.478-.693 0-.404-.29-.698-.689-.698-.077 0-.187.019-.308.055a1.395 1.395 0 0 1-.358.052c-.655 0-.96-.433-.96-1.361V4.284h1.555zM54.299 10.076c-1.793 0-2.731-1.515-2.731-3.012 0-2.057 1.416-2.994 2.731-2.994s2.731.937 2.731 2.994c0 2.07-1.416 3.012-2.731 3.012m0-7.472c-2.615 0-4.512 1.876-4.512 4.46 0 1.258.46 2.404 1.294 3.228.828.817 1.971 1.267 3.219 1.267 2.582 0 4.53-1.933 4.53-4.496 0-2.584-1.906-4.46-4.53-4.46" fill="#131213"/><path d="M64.204 10.511c-.823.119-1.286.087-1.508-.241-.158-.235-.238-.624-.238-1.154V3.498h1.601a.26.26 0 0 0 .258-.261v-.413a.26.26 0 0 0-.258-.261h-1.601V.591A.26.26 0 0 0 62.2.33h-.416a.26.26 0 0 0-.258.261v1.972h-1.253a.26.26 0 0 0-.258.261v.413a.26.26 0 0 0 .258.261h1.253v5.673c.006.786.152 1.355.447 1.739.307.4.806.602 1.481.602.437 0 .745-.035.942-.108a.26.26 0 0 0 .166-.29l-.068-.39a.26.26 0 0 0-.29-.213M71.458 2.562h-.416a.26.26 0 0 0-.258.261v5.795c-.122.646-.393 1.122-.827 1.452-.441.336-1.029.506-1.749.506-.663 0-1.148-.191-1.482-.586-.34-.401-.518-1.015-.527-1.822V2.823a.26.26 0 0 0-.258-.261h-.408a.26.26 0 0 0-.258.261v5.333c.011 1.068.262 1.9.745 2.473.495.586 1.236.883 2.203.883.752 0 1.388-.147 1.889-.436.254-.147.478-.321.672-.521v.543a.26.26 0 0 0 .258.261h.416a.26.26 0 0 0 .258-.261V2.824a.26.26 0 0 0-.258-.261M76.799 10.511c-.823.119-1.287.087-1.508-.241-.158-.235-.238-.623-.238-1.154V3.498h1.601a.26.26 0 0 0 .258-.261v-.413a.26.26 0 0 0-.258-.261h-1.601V.591a.26.26 0 0 0-.258-.261h-.416a.26.26 0 0 0-.258.261v1.972h-1.253a.26.26 0 0 0-.258.261v.413a.26.26 0 0 0 .258.261h1.253v5.673c.006.786.152 1.355.447 1.739.307.4.806.602 1.481.602.437 0 .745-.035.942-.108a.26.26 0 0 0 .166-.29l-.068-.39a.26.26 0 0 0-.29-.213M83.872 7.869c-.2-.332-.52-.62-.951-.855-.411-.224-.972-.42-1.666-.583-.654-.153-1.154-.312-1.489-.474-.313-.152-.538-.318-.668-.494-.121-.164-.182-.406-.182-.719 0-.391.171-.71.523-.976.371-.28.891-.422 1.546-.422.683 0 1.239.169 1.653.502.402.323.598.711.598 1.187a.26.26 0 0 0 .258.261h.415a.26.26 0 0 0 .258-.261c0-.804-.303-1.454-.9-1.929-.578-.461-1.346-.695-2.283-.695-.866 0-1.584.216-2.133.643-.571.442-.86 1.016-.86 1.706 0 .679.231 1.223.687 1.617.436.376 1.167.671 2.239.902 1.571.336 2.334.923 2.334 1.794 0 .406-.19.746-.581 1.041-.408.308-.954.464-1.625.464-.739 0-1.327-.148-1.747-.44-.401-.279-.613-.659-.648-1.16a.259.259 0 0 0-.257-.243h-.408a.26.26 0 0 0-.258.261c0 .747.319 1.364.947 1.835.604.453 1.402.682 2.372.682.909 0 1.66-.218 2.232-.648.596-.448.898-1.049.898-1.785 0-.469-.102-.876-.303-1.21M91.567 6.495h-2.283V4.059a.315.315 0 0 0-.313-.317h-.297a.315.315 0 0 0-.313.317v2.436H86.18a.315.315 0 0 0-.313.317v.295c0 .175.14.317.313.317h2.181v2.43c0 .175.14.317.313.317h.297a.315.315 0 0 0 .313-.317v-2.43h2.283a.315.315 0 0 0 .313-.317v-.295a.315.315 0 0 0-.313-.317" fill="#80B341"/></svg>